<svg width="180" height="42" viewBox="0 0 180 42" fill="none" xmlns="http://www.w3.org/2000/svg">
<g filter="url(#filter0_d_7278_29521)">
<path d="M60.3291 25.1367V34.6621C60.321 34.67 58.259 36.672 54.9843 35.9854L50.4863 32.1748C53.2381 32.8627 55.5136 31.1162 55.5136 31.1162V22.332L58.583 21.5908L60.3291 25.1367ZM65.3017 5.92578C65.316 5.93266 66.8477 6.67377 69.3232 8.20117C71.6517 9.63003 72.8167 11.8532 72.7109 14.4463C72.6579 16.3513 72.1809 18.0449 70.9638 19.7383C77.1554 22.4372 79.8018 22.7544 84.8291 22.5957C89.0627 22.4899 92.1855 20.5844 94.1435 18.5205C95.0431 18.891 95.5724 19.8968 95.5195 20.6377C95.202 23.5483 86.2583 24.448 81.3896 24.501C82.6598 25.1889 85.5701 26.0888 88.4804 26.0889C91.391 26.0359 93.0844 25.4004 92.3437 26.5645C91.8674 27.3053 89.7509 29.4756 84.1416 28.8936C81.0202 28.5232 77.7399 26.8832 77.4736 26.7236C76.4153 26.1416 77.1027 25.93 77.8965 26.1416C80.4862 26.8815 83.6569 26.8292 83.665 26.8291C83.635 26.8227 75.0293 24.9721 69.5351 21.9609L76.8379 32.0684C70.8052 30.8514 66.9951 33.2861 66.9951 33.2861L62.497 29.4756C62.5103 29.4653 64.888 27.6238 68.3711 27.9932L63.7138 19.791C67.2595 17.4625 68.0532 13.7051 67.6299 10.6357C67.3123 8.36022 66.5188 6.61378 65.3017 5.92578ZM158.39 24.4502C160.295 24.4502 161.248 25.2439 161.248 26.7783V30.2188H162.147V31.7002H159.66V30.6943C159.501 31.0648 159.184 31.383 158.813 31.5947C158.443 31.8064 157.967 31.9648 157.437 31.9648C156.75 31.9648 156.168 31.8059 155.691 31.4355C155.215 31.0652 155.003 30.5363 155.003 29.9014C155.003 29.2134 155.268 28.6839 155.744 28.3135C156.273 27.9431 156.961 27.6783 157.808 27.5195L159.395 27.2021V27.043C159.395 26.7256 159.29 26.4606 159.131 26.249C158.972 26.0905 158.602 25.9854 158.179 25.9854C157.808 25.9854 157.384 26.0375 157.014 26.1963C156.643 26.355 156.273 26.514 156.009 26.7256L155.109 25.5088C155.48 25.1913 155.956 24.9263 156.538 24.7676C157.12 24.556 157.702 24.4502 158.39 24.4502ZM119.441 24.4502C120.129 24.4502 120.764 24.6094 121.293 24.9268C121.822 25.2442 122.246 25.6672 122.563 26.1963C122.881 26.7783 123.04 27.4136 123.04 28.1543C123.04 28.8951 122.881 29.5303 122.563 30.1123C122.246 30.6944 121.822 31.118 121.293 31.4355C120.764 31.7529 120.129 31.9121 119.441 31.9121C118.753 31.9121 118.118 31.7531 117.589 31.4355C117.06 31.118 116.637 30.6944 116.319 30.1123C116.002 29.5302 115.843 28.8951 115.843 28.1543C115.843 27.4136 116.002 26.7783 116.319 26.1963C116.637 25.6145 117.06 25.1913 117.589 24.9268C118.118 24.6092 118.753 24.4502 119.441 24.4502ZM137.329 24.4502C138.017 24.4502 138.599 24.6095 139.128 24.874C139.657 25.1386 140.027 25.5617 140.292 26.0908C140.557 26.62 140.716 27.2554 140.716 27.9434V28.79H135.688C135.794 29.2661 136.006 29.6368 136.323 29.9014C136.641 30.1658 137.064 30.3241 137.54 30.3242C137.91 30.3242 138.228 30.2718 138.546 30.166C138.863 30.0602 139.18 29.8476 139.498 29.583L140.398 30.8008C139.605 31.5417 138.599 31.9121 137.487 31.9121C136.746 31.9121 136.111 31.753 135.582 31.4355C135.053 31.118 134.63 30.6943 134.312 30.1123C133.995 29.5304 133.836 28.8957 133.836 28.208C133.836 27.4671 133.995 26.8312 134.26 26.249C134.524 25.6672 134.948 25.2442 135.477 24.9268C136.006 24.6092 136.641 24.4502 137.329 24.4502ZM153.733 31.6934H151.987V30.6885C151.564 31.4822 150.823 31.9052 149.817 31.9053C149.235 31.9053 148.706 31.7462 148.229 31.4287C147.753 31.1113 147.383 30.6883 147.118 30.1064C146.854 29.5244 146.748 28.8891 146.748 28.1484C146.748 27.4076 146.854 26.7716 147.118 26.1895C147.383 25.6075 147.753 25.1845 148.229 24.9199C148.706 24.6553 149.235 24.4434 149.817 24.4434C150.717 24.4434 151.352 24.7613 151.828 25.4492V21.6914H153.733V31.6934ZM126.586 24.6553H128.015V26.1367H126.586V29.5234C126.586 29.7351 126.639 29.9469 126.798 30.0527C126.904 30.1585 127.168 30.2119 127.485 30.2119C127.75 30.2119 127.962 30.2111 128.174 30.1582V31.6406C127.803 31.7465 127.38 31.7988 126.851 31.7988C126.057 31.7988 125.527 31.6407 125.21 31.3232C124.892 31.0057 124.734 30.5286 124.734 29.8936V26.1895H123.464V24.708H124.681V23.0674L126.586 22.0088V24.6553ZM131.824 24.6553H133.253V26.1367H131.824V29.5234C131.824 29.735 131.877 29.9468 132.035 30.0527C132.141 30.1586 132.406 30.2119 132.724 30.2119C132.988 30.2119 133.2 30.2111 133.411 30.1582V31.6406C133.041 31.7464 132.618 31.7988 132.089 31.7988C131.295 31.7988 130.766 31.6405 130.448 31.3232C130.131 31.0057 129.972 30.5286 129.972 29.8936V26.1895H128.701V24.708H129.919V23.0674L131.824 22.0088V24.6553ZM171.144 24.498C171.937 24.4451 172.467 24.6577 172.891 25.0811C173.314 25.5044 173.525 26.0867 173.525 26.7744V31.6426H171.62V27.3564C171.62 26.986 171.514 26.6677 171.303 26.4561C171.091 26.2445 170.826 26.086 170.456 26.0859C170.086 26.0859 169.821 26.1917 169.609 26.4561C169.398 26.7207 169.292 27.0387 169.292 27.4092V31.6426H167.387V27.3564C167.387 26.986 167.281 26.6677 167.122 26.4561C166.91 26.2445 166.646 26.086 166.275 26.0859C165.905 26.0859 165.588 26.2452 165.376 26.5098C165.164 26.7743 165.058 27.1442 165.058 27.5674V31.6953H163.153V24.71H164.899V25.7158C165.111 25.3454 165.376 25.0281 165.746 24.8164C166.116 24.6048 166.539 24.4981 167.016 24.498C167.492 24.498 167.916 24.6047 168.233 24.8164C168.604 25.0281 168.869 25.2927 169.027 25.6631C169.239 25.2927 169.556 25.0281 169.927 24.8164C170.297 24.6048 170.72 24.4981 171.144 24.498ZM112.139 22.0088C112.721 22.0088 113.25 22.1145 113.673 22.3789C114.149 22.6434 114.52 23.0141 114.784 23.4902C115.049 23.9665 115.155 24.496 115.155 25.0781C115.155 25.819 114.943 26.4015 114.572 26.9307C114.202 27.4596 113.673 27.7776 113.038 27.9893L115.473 31.6934H113.303L111.027 28.1475H109.492V31.6934H107.587V22.0088H112.139ZM145.635 24.6016C145.952 24.6016 146.164 24.6014 146.376 24.6543V26.4531C146.164 26.4002 145.952 26.4004 145.687 26.4004C145.106 26.4005 144.629 26.6119 144.311 27.0352C143.941 27.4585 143.782 28.0939 143.782 28.8877V31.6924H141.878V24.707H143.624V26.083C143.783 25.6067 143.995 25.289 144.365 25.0244C144.736 24.76 145.159 24.6016 145.635 24.6016ZM158.179 28.79C157.702 28.8959 157.385 29.0016 157.12 29.1074C156.908 29.2133 156.803 29.4249 156.803 29.6895C156.803 29.9011 156.908 30.1129 157.12 30.2188C157.332 30.3774 157.597 30.4307 157.914 30.4307C158.284 30.4835 158.601 30.3768 158.919 30.1123C159.236 29.9006 159.343 29.5835 159.343 29.1602V28.5254L158.179 28.79ZM150.24 26.0312C149.764 26.0313 149.341 26.2429 149.076 26.6133C148.759 26.9837 148.653 27.5132 148.653 28.2012C148.653 28.8359 148.812 29.3648 149.076 29.7881C149.394 30.1585 149.764 30.371 150.24 30.3711C150.716 30.3182 151.14 30.1587 151.404 29.7354C151.722 29.365 151.881 28.8362 151.881 28.1484C151.881 27.4605 151.722 26.9837 151.404 26.6133C151.087 26.243 150.716 26.0312 150.24 26.0312ZM119.441 25.9854C118.965 25.9854 118.542 26.1969 118.277 26.5674C117.96 26.9378 117.801 27.4665 117.801 28.1543C117.801 28.8423 117.96 29.3188 118.277 29.7422C118.595 30.1125 118.965 30.3242 119.441 30.3242C119.918 30.3242 120.341 30.1126 120.605 29.7422C120.923 29.3717 121.082 28.8422 121.082 28.1543C121.082 27.4666 120.923 26.9906 120.605 26.5674C120.288 26.197 119.918 25.9854 119.441 25.9854ZM137.275 25.8789C136.905 25.9318 136.588 26.0382 136.27 26.3027C136.006 26.5673 135.794 26.9378 135.688 27.4141H138.811C138.758 26.9378 138.599 26.5673 138.334 26.3027C138.069 26.0381 137.699 25.8789 137.275 25.8789ZM109.492 26.5068H111.768C112.191 26.5068 112.562 26.4012 112.826 26.1367C113.091 25.8721 113.25 25.5544 113.25 25.0781C113.25 24.6019 113.091 24.2841 112.826 24.0195C112.562 23.7551 112.191 23.6494 111.768 23.6494H109.492V26.5068ZM22.914 7.67188C23.4432 7.51311 23.1792 8.04241 23.0205 8.20117C21.3801 11.7466 23.6024 13.0165 27.3066 13.0166C32.9691 13.0166 38.6318 5.23741 59.4824 16.3506C57.7394 16.8259 55.5223 17.3544 55.5136 17.3564C53.8202 16.2451 51.9681 17.2504 50.4863 18.2559C48.687 19.4201 44.03 24.0767 40.2197 22.2246C39.426 21.8013 37.8384 20.9549 36.5683 21.0605C35.5628 21.1135 34.9273 21.5899 33.6572 22.1191C32.3873 22.7011 32.3349 21.7486 33.7636 20.7432C37.6269 18.0971 46.0938 13.9692 54.455 15.2393C43.236 11.7466 39.6374 12.3287 27.9951 17.1973C27.5718 17.4089 27.0953 17.5678 26.6191 17.7266C27.1483 18.5203 28.8415 19.1555 31.2226 18.4678C31.8577 18.2561 33.4989 17.5683 34.3457 18.1504C34.3457 18.1504 30.9058 20.3728 27.9424 20.6904C22.5974 21.2726 15.6119 19.0492 13.4951 16.7207C12.7542 15.874 12.7539 15.1331 13.6006 15.3447C14.0768 15.4506 17.3582 16.1914 19.6338 16.1914C21.1683 16.1914 22.3326 16.0857 23.2851 15.874C13.2309 12.1169 20.585 8.36022 22.914 7.67188ZM120.393 11.0654C121.08 11.0654 121.662 11.2238 122.191 11.4883C122.721 11.7529 123.092 12.1768 123.356 12.7061C123.621 13.2351 123.779 13.87 123.779 14.5576V15.4043H118.752C118.858 15.8806 119.069 16.252 119.387 16.5166C119.704 16.7812 120.128 16.9395 120.604 16.9395C120.975 16.9394 121.292 16.8861 121.609 16.7803C121.927 16.6744 122.245 16.4628 122.562 16.1982L123.462 17.416C122.668 18.1568 121.662 18.5273 120.551 18.5273C119.81 18.5273 119.175 18.3681 118.646 18.0508C118.117 17.7333 117.693 17.3097 117.376 16.7275C117.059 16.1455 116.899 15.5101 116.899 14.8223C116.899 14.0815 117.059 13.4463 117.323 12.8643C117.588 12.2824 118.011 11.8594 118.54 11.542C119.069 11.2245 119.705 11.0654 120.393 11.0654ZM140.027 11.0654C140.715 11.0655 141.297 11.2238 141.826 11.4883C142.355 11.7529 142.726 12.1768 142.99 12.7061C143.255 13.2351 143.414 13.8699 143.414 14.5576V15.4043H138.387C138.493 15.8806 138.704 16.252 139.021 16.5166C139.339 16.781 139.762 16.9394 140.238 16.9395C140.609 16.9395 140.927 16.8861 141.244 16.7803C141.562 16.6744 141.879 16.4628 142.196 16.1982L143.097 17.416C142.303 18.1569 141.297 18.5273 140.186 18.5273C139.445 18.5273 138.809 18.3683 138.28 18.0508C137.751 17.7333 137.328 17.3096 137.011 16.7275C136.693 16.1454 136.534 15.5102 136.534 14.8223C136.534 14.0815 136.692 13.4463 136.957 12.8643C137.222 12.2822 137.646 11.8595 138.175 11.542C138.704 11.2245 139.339 11.0654 140.027 11.0654ZM147.648 11.0654C148.336 11.0655 148.918 11.2238 149.447 11.4883C149.976 11.7529 150.347 12.1768 150.611 12.7061C150.876 13.2351 151.035 13.8698 151.035 14.5576V15.4043H146.008C146.114 15.8806 146.325 16.252 146.643 16.5166C146.96 16.781 147.383 16.9394 147.859 16.9395C148.23 16.9395 148.548 16.8861 148.865 16.7803C149.183 16.6744 149.5 16.4628 149.817 16.1982L150.718 17.416C149.924 18.1569 148.918 18.5273 147.807 18.5273C147.066 18.5273 146.43 18.3683 145.901 18.0508C145.372 17.7333 144.949 17.3096 144.632 16.7275C144.314 16.1454 144.155 15.5102 144.155 14.8223C144.155 14.0815 144.315 13.4463 144.579 12.8643C144.844 12.2824 145.267 11.8594 145.796 11.542C146.325 11.2245 146.96 11.0654 147.648 11.0654ZM167.914 11.0654C168.602 11.0654 169.185 11.2237 169.714 11.4883C170.243 11.7529 170.613 12.1769 170.878 12.7061C171.142 13.2351 171.301 13.8699 171.301 14.5576V15.4043H166.273C166.379 15.8806 166.591 16.252 166.908 16.5166C167.226 16.7812 167.65 16.9395 168.126 16.9395C168.496 16.9394 168.813 16.886 169.131 16.7803C169.448 16.6744 169.766 16.4628 170.084 16.1982L170.983 17.416C170.19 18.1567 169.184 18.5273 168.073 18.5273C167.332 18.5273 166.697 18.3683 166.168 18.0508C165.639 17.7333 165.215 17.3097 164.897 16.7275C164.58 16.1455 164.422 15.5101 164.422 14.8223C164.422 14.0815 164.58 13.4463 164.845 12.8643C165.109 12.2824 165.533 11.8594 166.061 11.542C166.591 11.2245 167.226 11.0654 167.914 11.0654ZM111.66 8.46289C112.454 8.46289 113.195 8.56845 113.83 8.83301C114.465 9.09754 115.047 9.46808 115.576 9.99707L114.359 11.2676C113.936 10.8971 113.512 10.6326 113.089 10.4209C112.666 10.2094 112.243 10.1563 111.767 10.1562C111.237 10.1562 110.76 10.2618 110.337 10.5264C109.914 10.7909 109.544 11.1616 109.332 11.6377C109.12 12.114 108.962 12.7495 108.962 13.4375C108.962 14.4958 109.226 15.3427 109.702 15.9248C110.178 16.5068 110.866 16.8241 111.713 16.8242C112.03 16.8242 112.401 16.7711 112.719 16.6123C113.036 16.4536 113.301 16.2423 113.513 15.9248C113.724 15.6074 113.83 15.2368 113.83 14.7607V14.5488H111.078V12.9082H115.735V18.3057H114.042V17.1943C113.724 17.6706 113.3 17.9885 112.824 18.2002C112.348 18.4118 111.819 18.5176 111.29 18.5176C110.39 18.5176 109.596 18.3062 108.908 17.8828C108.273 17.4595 107.744 16.8767 107.427 16.083C107.109 15.3422 106.897 14.4427 106.897 13.4902C106.897 12.5378 107.109 11.6912 107.479 10.8975C107.85 10.1566 108.432 9.52102 109.173 9.09766C109.914 8.67433 110.708 8.46293 111.66 8.46289ZM162.412 11.2754H163.841V12.8096H162.412V16.1963C162.412 16.4078 162.465 16.6197 162.623 16.7256C162.729 16.8314 162.994 16.8848 163.311 16.8848C163.576 16.8848 163.787 16.8848 163.999 16.832V18.3135C163.629 18.4192 163.206 18.4717 162.677 18.4717C161.883 18.4717 161.354 18.3134 161.036 17.9961C160.719 17.6786 160.56 17.2022 160.56 16.5674V12.8096H159.289V11.3281H160.507V9.6875L162.412 8.62891V11.2754ZM156.062 11.0098C156.856 11.0627 157.439 11.2747 157.862 11.751C158.285 12.2271 158.497 12.8092 158.497 13.5498V18.3125H156.592V14.0791C156.592 13.6031 156.486 13.2859 156.274 13.0742C156.063 12.8626 155.745 12.7559 155.375 12.7559C155.005 12.7559 154.686 12.9151 154.422 13.1797C154.157 13.4443 154.052 13.8147 154.052 14.3438V18.3662H152.146V11.2744H153.893V12.2803C154.051 11.91 154.369 11.5925 154.739 11.3809C155.11 11.1692 155.586 11.0098 156.062 11.0098ZM132.987 11.0654C133.728 11.0654 134.311 11.2768 134.734 11.7002C135.158 12.1235 135.369 12.7058 135.369 13.3936V18.2627H133.464V13.9756C133.464 13.6053 133.358 13.2878 133.146 13.0762C132.935 12.8645 132.67 12.7061 132.3 12.7061C131.929 12.7061 131.665 12.8117 131.453 13.0762C131.241 13.3408 131.136 13.6589 131.136 14.0293V18.2627H129.23V13.9756C129.23 13.6053 129.124 13.2878 128.966 13.0762C128.754 12.8645 128.489 12.7061 128.119 12.7061C127.749 12.7061 127.431 12.8645 127.22 13.1289C127.008 13.3935 126.901 13.7642 126.901 14.1875V18.3154H124.997V11.2773H126.743V12.2822C126.955 11.9119 127.219 11.5944 127.59 11.3828C127.96 11.1712 128.383 11.0655 128.859 11.0654C129.336 11.0654 129.76 11.1711 130.077 11.3828C130.448 11.5945 130.712 11.8591 130.871 12.2295C131.083 11.8591 131.4 11.5945 131.77 11.3828C132.141 11.1712 132.564 11.0655 132.987 11.0654ZM47.7871 7.25C48.8452 7.35584 49.4271 7.5152 50.4853 7.93848C52.5876 8.77939 55.4731 10.8726 55.5127 10.9014C55.5127 10.9014 55.513 10.9011 59.9052 9.84277C60.1698 9.78985 61.7577 9.41986 62.3398 10.8486C62.4456 11.2191 62.5515 11.5895 62.6045 11.96C62.7103 12.8595 62.6045 13.8119 62.2871 14.5527C62.2342 14.7114 62.1282 14.8705 62.0224 15.082C61.8637 15.2937 61.7574 15.4528 61.5986 15.5586C55.6716 12.3305 49.7975 9.26088 46.2519 8.94336C44.5586 8.78453 45.9878 7.09124 47.7871 7.25ZM120.393 12.4941C120.022 12.4941 119.651 12.6534 119.387 12.918C119.122 13.1825 118.91 13.5532 118.805 14.0293H121.927C121.874 13.5532 121.716 13.1825 121.451 12.918C121.187 12.6534 120.816 12.4942 120.393 12.4941ZM139.974 12.4941C139.603 12.4942 139.233 12.6534 138.969 12.918C138.704 13.1826 138.493 13.5531 138.387 14.0293H141.509C141.456 13.5531 141.297 13.1826 141.032 12.918C140.768 12.6534 140.397 12.4941 139.974 12.4941ZM147.595 12.4941C147.224 12.4943 146.907 12.6535 146.59 12.918C146.325 13.1826 146.114 13.5531 146.008 14.0293H149.13C149.077 13.5531 148.918 13.1826 148.653 12.918C148.389 12.6534 148.018 12.4941 147.595 12.4941ZM167.914 12.4941C167.544 12.4942 167.173 12.6534 166.908 12.918C166.644 13.1825 166.432 13.5533 166.326 14.0293H169.449C169.396 13.5532 169.237 13.1826 168.973 12.918C168.708 12.6534 168.337 12.4941 167.914 12.4941ZM6.3486 11.959C5.34327 10.9536 6.66606 9.5777 8.35934 10.6357C9.36478 11.2178 9.89444 12.0119 10.4765 13.3877C10.9528 14.5519 10.3174 13.7056 9.47067 13.2822C7.40687 12.2768 7.19531 12.8586 6.3486 11.959Z" fill="white"/>
</g>
<defs>
<filter id="filter0_d_7278_29521" x="0.355144" y="0.280925" width="178.815" height="41.4928" filterUnits="userSpaceOnUse" color-interpolation-filters="sRGB">
<feFlood flood-opacity="0" result="BackgroundImageFix"/>
<feColorMatrix in="SourceAlpha" type="matrix" values="0 0 0 0 0 0 0 0 0 0 0 0 0 0 0 0 0 0 127 0" result="hardAlpha"/>
<feOffset/>
<feGaussianBlur stdDeviation="2.82243"/>
<feComposite in2="hardAlpha" operator="out"/>
<feColorMatrix type="matrix" values="0 0 0 0 0 0 0 0 0 0 0 0 0 0 0 0 0 0 0.25 0"/>
<feBlend mode="normal" in2="BackgroundImageFix" result="effect1_dropShadow_7278_29521"/>
<feBlend mode="normal" in="SourceGraphic" in2="effect1_dropShadow_7278_29521" result="shape"/>
</filter>
</defs>
</svg>
