<?xml version="1.0" standalone="no"?>
<!DOCTYPE svg PUBLIC "-//W3C//DTD SVG 20010904//EN"
 "http://www.w3.org/TR/2001/REC-SVG-20010904/DTD/svg10.dtd">
<svg version="1.0" xmlns="http://www.w3.org/2000/svg"
 width="700.000000pt" height="700.000000pt" viewBox="0 0 700.000000 700.000000"
 preserveAspectRatio="xMidYMid meet">
<metadata>
Created by potrace 1.14, written by Peter Selinger 2001-2017
</metadata>
<g transform="translate(0.000000,700.000000) scale(0.100000,-0.100000)"
fill="#000000" stroke="none">
<path d="M3955 6572 c217 -219 357 -638 372 -1113 22 -667 -249 -1245 -752
-1601 -38 -27 -69 -54 -68 -58 2 -5 216 -385 478 -846 261 -460 475 -837 475
-838 0 0 -87 -1 -193 -2 -211 0 -303 -12 -490 -65 -175 -49 -298 -102 -445
-192 -67 -40 -80 -53 -70 -63 7 -6 209 -177 448 -379 239 -202 442 -374 451
-381 13 -12 29 -7 115 36 237 118 522 200 854 247 177 24 601 24 795 -1 77 -9
171 -24 209 -32 38 -8 70 -13 71 -12 1 2 -348 480 -776 1063 -428 583 -778
1062 -778 1065 0 3 36 46 80 95 100 112 261 324 327 431 199 321 285 632 286
1034 0 259 -32 416 -125 619 -92 197 -273 414 -456 544 -130 92 -468 293 -818
487 l-60 33 70 -71z"/>
<path d="M2288 5782 l-478 -116 0 -673 0 -672 33 6 c90 17 807 198 907 229
212 65 250 82 315 145 143 137 210 334 209 609 -1 113 -5 150 -26 225 -14 50
-31 111 -38 137 -10 36 -28 64 -79 116 -57 59 -75 71 -134 90 -126 41 -171 35
-709 -96z"/>
<path d="M2115 3355 l-300 -72 -3 -907 -2 -906 -43 -31 c-103 -76 -326 -166
-502 -205 -95 -20 -330 -24 -419 -6 -33 7 -61 11 -62 9 -2 -2 807 -691 887
-756 64 -51 350 -65 546 -26 178 34 353 109 498 213 l80 57 3 986 2 986 -179
367 c-104 211 -185 366 -193 365 -7 0 -148 -33 -313 -74z"/>
</g>
</svg>
