<svg width="1512" height="272" viewBox="0 0 1512 272" fill="none" xmlns="http://www.w3.org/2000/svg">
<path d="M1504.18 204.506V200.721H1502.31V198.97L1499.97 198.087V195.445H1496.32V195.856H1495.07V192.441L1494.39 191.668H1491.26V193.411H1490.44V193.143H1490.12L1489.26 192.031V185.099H1485.4V193.411H1483.37V192.883H1479.13V193.364H1477.97V194.065H1472.4V195.721H1469.38V196.131H1466.88V190.927L1467.36 190.091H1467.6V183.349H1467V182.749H1466.6V177.222L1466.72 176.977V176.267L1466.55 176.125V175.424H1466.06V175.976H1465.84V176.425H1464.9V173.57L1466.23 173.531V172.9L1464.9 172.293V171.78H1464.84V176.417H1462.67V177.253H1459.15V176.977H1457.95V177.158H1452.58V176.938H1452.68V176.733H1452.36L1451.71 175.905H1450.2V174.611L1450.39 174.501V174.028H1450.22V172.742H1450.06V171.307L1450.39 170.842V170.621H1450.19V170.156C1450.19 170.156 1450.39 169.612 1450.39 169.296C1450.39 168.981 1450.21 168.461 1450.21 168.461C1450.21 166.26 1448.77 165.133 1448.77 165.133C1448.77 165.133 1448.87 164.967 1448.87 164.865C1448.87 164.762 1448.67 164.731 1448.67 164.731V164.565L1448.05 164.076V163.461L1447.88 163.319V162.87L1448.11 162.239V161.876L1448.02 161.647V160.969L1447.83 160.717L1447.65 160.969V161.647L1447.56 161.876V162.239L1447.79 162.87V163.319L1447.62 163.461V164.076L1447 164.565V164.731C1447 164.731 1446.79 164.754 1446.79 164.865C1446.79 164.975 1446.9 165.133 1446.9 165.133C1446.9 165.133 1445.46 166.253 1445.46 168.461C1445.46 168.461 1445.28 168.981 1445.28 169.296C1445.28 169.612 1445.48 170.156 1445.48 170.156V170.621H1445.28V170.842L1445.61 171.307V172.742H1445.45V174.028H1445.28V174.501L1445.46 174.611V175.905H1444.87L1443.85 177.056V176.394H1443.24V177.561H1441.9V175.495H1441.38V177.529H1438.84V178.097H1437.77V177.529L1437.43 177.143H1437.1V177.837L1436.81 178.073H1436.57V177.34H1435.53V177.703L1435.23 177.403V176.882H1434.75V177.316L1434.53 177.545H1434.36V176.827H1433.96V177.348H1433.82V175.652H1433.46V175.29H1433.06V175.644H1432.81V176.354H1432.27V176.52L1431.28 177.482V176.851H1430.67V177.9H1429.82V177.608H1429.29L1428.18 176.898V176.086H1427.35V176.859L1426.14 177.569H1425.72V178.16H1423.75V176.496H1423.56V176.67H1421.72V178.176H1419.48V176.37H1419.59V175.991H1414.24V176.212H1414.36V187.465H1410.46V95.0445L1411.19 94.2559V93.0652H1399.9C1399.9 93.0652 1399.9 92.4343 1399.9 91.906C1399.9 91.3777 1401.16 90.2579 1402.81 89.1697C1404.45 88.0814 1405.15 86.1889 1405.15 86.1889V85.4555H1399.2V84.6117C1399.2 84.6117 1402.14 83.4525 1403.36 82.7507C1404.59 82.0489 1405.15 80.5742 1405.15 80.5742V79.5964H1399.83V74.4786H1400.29V74.1316H1387.43V73.6663H1383.12V74.242H1379.78V73.6348H1379.13V73.9739H1378.12V74.2499H1375.42L1374.55 73.6585H1368.59V74.1947H1366.76V69.7629L1366.6 69.5658V66.7111H1366.38V78.5318H1366.2V79.8724H1366.38V94.7054L1366.1 95.3047V114.806H1354.19V163.469H1352.52V164.257H1350.1V156.79H1345.42V154.369H1344.11L1342.59 152.421H1341.33V152.997H1332.6V154.258H1331.44V157.31H1327.03V192.993H1323.44V180.297L1322.74 179.382H1319.94V176.015H1317.98V177.135H1317.56V178.467H1316.51V175.447H1314.12V178.467H1311.68V173.981H1301.66V170.329H1294.72V198.04H1293.54V181.622H1289.81V177.466H1287.92V183.727H1278.64V179.832H1280.29C1283.01 179.832 1285.23 177.608 1285.23 174.887C1285.23 172.167 1283.01 169.943 1280.29 169.943H1277.84L1276.81 168.839H1276.21V169.943H1267.65V168.839H1265.32V169.943H1238.6V168.839H1227.71V169.943H1221.44C1218.72 169.943 1216.5 172.167 1216.5 174.887C1216.5 177.608 1218.72 179.832 1221.44 179.832H1223.09V183.727H1213.34V182.939H1210.21V181.921H1210.01V180.841H1210.21V178.862H1210.01V177.781H1210.21V175.802H1210.01V174.722H1210.21V172.742H1210.01V171.662H1210.21V169.683H1210.01V168.602H1210.21V166.623H1210.01V165.543H1210.21V163.564H1210.01V162.483H1210.21V160.504H1210.01V159.424H1210.21V157.444H1210.01V156.364H1210.21V154.385H1210.01V153.304H1210.21V151.325H1210.01V150.245H1210.21V148.265H1210.01V147.185H1210.21V145.206H1210.01V144.125H1210.21V142.146H1210.01V141.066H1210.21V139.086H1210.01V138.006H1210.21V136.027H1210.01V134.946H1210.21V132.967H1210.01V131.887H1210.21V129.907H1210.01V128.827H1210.21V126.848H1210.01V125.767H1210.21V123.788H1210.01V122.708H1210.21V120.728H1210.01V119.648H1210.21V117.669H1210.01V116.588H1210.21V114.609H1210.01V113.497H1210.21V111.518H1210.01V110.437H1210.21V108.458H1210.01V107.378H1210.21V105.398H1210.01V104.318H1210.21V102.339H1210.01V101.258H1210.21V99.2791H1210.01V98.1988H1210.21V96.2195H1210.01V95.1391H1210.21V93.1598H1210.01V92.0795H1210.21V90.1002H1210.01V89.0198H1210.21V87.0405H1210.01V85.9602H1210.21V83.9809H1210.01V82.9005H1210.21V80.9212H1210.01V79.8409H1210.21V77.8615H1210.01V76.7812H1210.21V74.8019H1210.01V73.7215H1210.21V71.7422H1210.01V55.9629H1207.67V54.2754L1208.06 53.8574V48.8894H1203.05V46.5474L1202.68 46.1294V45.4986H1201.65V45.8929H1200V47.1782H1190.18V49.0235H1187.87V49.7569H1184.34V56.649H1180.19V71.7186H1179.9V73.6979H1180.19V74.7782H1179.9V76.7575H1180.19V77.8379H1179.9V79.8172H1180.19V80.8975H1179.9V82.8769H1180.19V83.9572H1179.9V85.9365H1180.19V87.0169H1179.9V88.9962H1180.19V90.0765H1179.9V92.0558H1180.19V93.1362H1179.9V95.1155H1180.19V96.1958H1179.9V98.1752H1180.19V99.2555H1179.9V101.235H1180.19V102.315H1179.9V104.294H1180.19V105.375H1179.9V107.354H1180.19V108.434H1179.9V110.414H1180.19V111.494H1179.9V113.497H1180.19V114.577H1179.9V116.557H1180.19V117.637H1179.9V119.616H1180.19V120.697H1179.9V122.676H1180.19V123.756H1179.9V125.736H1180.19V126.816H1179.9V128.795H1180.19V129.876H1179.9V131.855H1180.19V132.935H1179.9V134.915H1180.19V135.995H1179.9V137.974H1180.19V139.055H1179.9V141.034H1180.19V142.114H1179.9V144.094H1180.19V145.174H1179.9V147.153H1180.19V148.234H1179.9V150.213H1180.19V151.293H1179.9V153.273H1180.19V154.353H1179.9V156.332H1180.19V157.413H1179.9V159.392H1180.19V160.472H1179.9V162.452H1180.19V163.532H1179.9V165.511H1180.19V166.592H1179.9V168.571H1180.19V169.651H1179.9V171.631H1180.19V172.711H1179.9V174.69H1180.19V175.771H1179.9V177.75H1180.19V178.83H1179.9V180.81H1180.19V181.89H1179.9V183.869H1180.19V191.81C1179.26 191.621 1178.24 191.51 1177.18 191.51C1171.44 191.51 1167.23 194.878 1167.23 194.878C1167.23 194.878 1163.03 191.51 1157.29 191.51C1156.74 191.51 1156.2 191.542 1155.68 191.597V178.31L1154.79 177.229V133.724H1154.47V133.85H1153.5V132.912L1153.7 132.762V131.91H1149.13V130.317L1149.5 129.986V127.478H1148.73V126.043H1147.08V127.218H1145.8V125.901L1145.51 125.231H1137.45V127.352H1134.23V127.092H1133.46V178.436V203.56L1132.85 204.664V204.979H1131.61V202.637H1132.35V199.483H1131.64V197.606H1132.37V195.579H1131.7V194.002H1132.41V192.055H1131.29V181.811L1131.64 180.967V178.231H1126.16V114.767H1135.24V44.2605H1125.79V41.1535H1108.24V44.6469H1102.92V114.806H1096.65V101.952L1097.03 101.566V44.781H1087.31V41.5951H1068.47V41.3822H1066.92V44.7731H1058.54V114.806H1053.39V44.7573H1043.64V42.7307L1042.88 41.2324H1031.22V41.603H1026.02L1025.49 40.4438H1024.7L1023.76 41.7055V44.7258H1014.3V44.2369H1013.7V114.822L1014.82 115.681V177.758H1015.11V178.31L1014.21 179.043V187.804L1014.43 188.049V191.542H1013.54V205.586H1012.86V203.11H1011.81V200.902H1012.5V199.01H1012.13V196.904H1012.5V195.958H1012.02V194.065H1012.5V193.064H989.383V134.725H988.36V133.897H987.1V133.519H979.532V125.365L979.24 124.892V112.669H975.791V112.385H966.444V113.363L966.633 113.537V119.38H964.656V118.15H959.663V119.514H956.812L954.277 107.693H956.994V105.848H953.985L953.789 103.506H952.308V102.441L951.93 101.984V98.3644L951.812 98.1673V101.361L951.631 101.732V103.498L947.74 104.807L959.931 193.853H945.677V186.771H921.792V184.453H921.06V172.561H920.501V173.105H897.159V174.469H897.632V190.406L897.451 190.272H890.198V155.922H889.599V156.963H885.252V149.764H884.819V156.861H875.794V155.252H874.259V157.129H836.616V149.298H834.545V150.505H820.772V153.99H817.945V138.455L816.496 137.075V136.208H815.07V137.06H811.857V136.523H810.361V129.757L808.692 127.952H807.888V126.99L807.463 126.658V116.73H807.243V126.682L807.061 127.037V127.952H806.306V136.476H803.762V137.462H799.95V143.045H797.43V188.12H792.178V187.52H789.737V177.513L789.973 177.174V175.968H786.799V175.566H785.429V176.102H780.279V183.333H779.176V172.561L773.861 164.691H766.308L760.93 171.457V174.738H751.299V115.752H737.234V67.5234L735.517 65.891H730.658V55.4661H730.28V59.3932L730.036 59.614V68.6116H705.805V187.773H703.395V188.577H702.151V196.952L701.277 195.65V195.351L701.159 195.154L699.45 196.061L647.892 110.777L648.357 110.232L648.412 109.972L648.9 109.412L646.608 99.6261V94.8316L644.262 91.2988L643.419 100.746L444.528 197.701C440.244 197.945 435.999 198.19 431.881 198.434V167.601H410.886V187.102H409.201V187.41H407.579V192.007H405.618V181.795H403.728V179.161H403.184V181.795H397.042V195.516H395.215V181.322H394.341V176.591H393.797V180.849H391.364L390.151 179.161H388.529V181.795H386.907V175.037H390.151V174.359H389.474V172.332H390.348V170.984H384.544V168.618H375.771V170.779H365.778V175.376H369.826L371.172 176.796V184.705H370.566V194.846H369.212V184.776H365.432V180.447H363.746V178.286H356.052V176.662H354.375V178.215H352.958V183.688H343.437V167.104H344.586V160.748H343.437V129.876H341.57V119.963H338.468V118.339H336.263V118.788H335.538V118.339H332.703L331.939 118.922H325.907V121.761H323.702V129.962H322.623V160.567H322.174V166.923H322.67V181.795H320.599V181.117H319.111V181.795H318.481V169.628H316.047V167.822L310.559 165.527H306.999V166.292H304.432V168.863H302.408V179.185H301.101V178.42H300.518V182.119H298.226V194.515H297.147V190.998H296.336V193.75H294.218V192.173H293.186V193.166H291.745V181.811H283.28V126.509H267.215V124.979H261.993L260.505 125.878V126.595H255.016V128.306H253.173V190.28H249.031V178.018H246.692V169.722H244.353V115.681H236.975V113.387H227.391V111.762H225.902V106.763H225.225V110.209H220.839V111.762H219.012V103.514H218.468V109.933H214.216L213.672 111.218H204.561V115.815H204.018V116.896L204.695 117.771V177.671H200.647V175.376H193.087V33.4019H190.929V22.9297H182.692V11.1011H177.085V0.344971H176.613V8.52246L176.211 9.06657V11.2273H169.525V23.1899H161.627V33.4019H159.737V175.849H157.169V177.608H156.09V175.171H154.673V177.466H147.176V145.15H139.348V144.204H115.518V179.903H113.558V182.134H109.982V181.527H106.943V182.268H105.391V180.305H104.312V181.385H103.1V146.302H95.13V144.811H70.3474V182.402H64.7404V181.385H63.9293V182.742H58.1963V185.375H53.739V184.09H53.0617V185.304H47.9981V182.828H45.5411L43.8795 181.022H27.2239V181.567H21.5145V180.62L18.0259 179.154V177.174H16.5769V171.702H17.1518V171.276H15.5689V170.818H14.8916V169.383H14.2301V167.609L13.9939 167.388V166.631L14.2301 166.26V165.448L13.9781 165.078V164.455L13.5056 163.981L13.0331 164.455V165.078L12.7811 165.448V166.26L13.0174 166.631V167.388L12.7811 167.609V169.383H12.1196V170.818H11.4424V171.276H9.85163V171.702H10.4265V177.174H8.9775V179.154L5.5125 180.628V181.661L6.03225 181.945V204.206H4.14225V203.158H0.921375V204.206L0.338625 204.869V274.082H1512V204.498H1504.18V204.506ZM1045.69 115.39H1049.71V177.324H1045.69V115.39ZM645.561 141.759L646.286 112.393L646.782 111.817L647.018 111.77L647.553 111.139L698.41 196.605L696.426 197.661V198.063C674.722 197.204 643.829 196.092 627.937 195.99L645.561 141.759ZM642.75 107.859L642.529 110.319L471.303 196.313C468.744 196.431 466.137 196.557 463.507 196.691L642.75 107.859ZM461.995 196.762C459.687 196.881 457.364 196.999 455.033 197.125L643.017 104.807L642.805 107.157L461.995 196.762ZM642.466 111.037L642.285 113.079L480.162 195.919C477.761 196.021 475.296 196.124 472.784 196.242L642.466 111.037ZM642.222 113.781L642.041 115.823L489.006 195.587C486.636 195.666 484.155 195.761 481.604 195.863L642.222 113.781ZM641.97 116.533L641.789 118.568L498.747 195.319C496.164 195.367 493.369 195.445 490.392 195.54L641.97 116.533ZM641.726 119.293L641.545 121.328L508.489 195.256C507.41 195.256 506.378 195.256 505.41 195.256C503.78 195.256 502 195.272 500.078 195.304L641.726 119.293ZM641.482 122.053L641.301 124.088L517.687 195.28C514.82 195.272 512.151 195.264 509.725 195.256L641.482 122.053ZM641.238 124.821L641.057 126.863L526.672 195.311C523.963 195.296 521.357 195.288 518.892 195.28L641.238 124.821ZM640.986 127.605L640.805 129.647L536.043 195.359C533.224 195.343 530.484 195.327 527.83 195.319L640.986 127.605ZM640.742 130.396L640.56 132.439L545.816 195.414C542.887 195.398 539.997 195.382 537.177 195.367L640.742 130.396ZM640.49 133.211L640.308 135.27L555.92 195.469C552.888 195.453 549.872 195.43 546.895 195.414L640.49 133.211ZM640.23 136.058L640.049 138.124L565.724 195.532C562.803 195.516 559.865 195.493 556.944 195.477L640.23 136.058ZM639.978 138.944L639.891 139.946L576.978 195.603C573.599 195.579 570.166 195.556 566.709 195.532L639.978 138.944ZM639.812 140.821L639.804 140.908L588.121 195.682C584.798 195.658 581.38 195.635 577.891 195.611L639.812 140.821ZM639.655 141.949L599.555 195.761C596.193 195.737 592.641 195.714 588.94 195.682L639.655 141.949ZM638.6 144.37L615.864 195.887C611.533 195.855 606.233 195.816 600.303 195.769L638.6 144.37ZM643.317 101.44L643.08 104.097L453.498 197.204C451.025 197.338 448.552 197.472 446.087 197.606L643.317 101.44ZM433.802 206.612L433.479 205.563L433.29 205.318L432.952 200.461C455.758 198.836 483.171 197.243 503.756 197.157C503.787 197.291 503.906 197.385 504.047 197.385H506.339C506.481 197.385 506.599 197.283 506.63 197.149C545.903 197.165 606.312 197.985 614.872 198.103L612.943 202.464V202.866H613.644V203.615H612.061L611.525 204.632V206.596H433.802V206.612ZM631 206.612V204.798L630.441 204.033L632.977 201.975C632.977 201.975 668.013 201.289 690.622 202.661V206.612H631Z" fill="#404B4F"/>
</svg>
