<svg width="20" height="20" viewBox="0 0 20 20" fill="none" xmlns="http://www.w3.org/2000/svg">
<path d="M0 0H7V2L3.41424 2L8.77817 7.36393L7.36396 8.77815L2 3.41418V7H0V0Z" fill="#404B4F"/>
<path d="M20 0V7H18V3.31378L12.5356 8.77817L11.1214 7.36396L16.4854 2L13 2V0H20Z" fill="#404B4F"/>
<path d="M18 16.5859V13H20V20H13V18H16.5857L11.1212 12.5355L12.5355 11.1213L18 16.5859Z" fill="#404B4F"/>
<path d="M3.31354 18H7L7 20H0V13H2L2 16.4851L7.36381 11.1213L8.77802 12.5355L3.31354 18Z" fill="#404B4F"/>
</svg>
