<svg class="list" width="19" height="18" viewBox="0 0 19 18" fill="none" xmlns="http://www.w3.org/2000/svg">
<path d="M6.125 5.0625H7.8125V6.1875H6.125V5.0625Z" fill="white"/>
<path d="M7.8125 7.3125H6.125V8.4375H7.8125V7.3125Z" fill="white"/>
<path d="M6.125 9.5625H7.8125V10.6875H6.125V9.5625Z" fill="white"/>
<path d="M7.8125 11.8125H6.125V12.9375H7.8125V11.8125Z" fill="white"/>
<path d="M8.375 5.0625H12.875V6.1875H8.375V5.0625Z" fill="white"/>
<path d="M12.875 7.3125H8.375V8.4375H12.875V7.3125Z" fill="white"/>
<path d="M8.375 9.5625H12.875V10.6875H8.375V9.5625Z" fill="white"/>
<path d="M12.875 11.8125H8.375V12.9375H12.875V11.8125Z" fill="white"/>
<path fill-rule="evenodd" clip-rule="evenodd" d="M3.875 2.8125V15.1875H15.125V2.8125H3.875ZM14 3.9375H5V14.0625H14V3.9375Z" fill="white"/>
</svg>
