<svg width="20" height="26" viewBox="0 0 20 26" fill="none" xmlns="http://www.w3.org/2000/svg">
    <path d="M17.6349 3.61281C16.709 2.48342 15.544 1.57355 14.224 0.948802C12.9039 0.324055 11.4617 0 10.0013 0C8.54084 0 7.09861 0.324055 5.77856 0.948802C4.4585 1.57355 3.29352 2.48342 2.3676 3.61281C0.837677 5.46838 0.000976563 7.79842 0.000976562 10.2034C0.000976563 12.6083 0.837677 14.9384 2.3676 16.7939L10.0013 26.0002L17.6361 16.7939C19.1652 14.938 20.0013 12.608 20.0011 10.2032C20.0009 7.79839 19.1644 5.46853 17.6349 3.61281ZM10.0001 13.9988C9.11016 13.9988 8.24017 13.7348 7.50017 13.2404C6.76018 12.746 6.18343 12.0432 5.84285 11.2209C5.50227 10.3987 5.41316 9.49394 5.58678 8.62106C5.76041 7.74818 6.18898 6.94639 6.81829 6.31708C7.4476 5.68777 8.24939 5.2592 9.12227 5.08557C9.99515 4.91195 10.8999 5.00106 11.7222 5.34164C12.5444 5.68222 13.2472 6.25897 13.7416 6.99897C14.2361 7.73896 14.5 8.60895 14.5 9.49893C14.5 10.6925 14.0259 11.8371 13.1821 12.6812C12.3382 13.5252 11.1937 13.9996 10.0001 13.9999V13.9988Z" fill="#00811F"/>
</svg>
